<?xml version="1.0" standalone="no"?>
<!DOCTYPE svg PUBLIC "-//W3C//DTD SVG 20010904//EN"
 "http://www.w3.org/TR/2001/REC-SVG-20010904/DTD/svg10.dtd">
<svg version="1.0" xmlns="http://www.w3.org/2000/svg"
 width="240.000000pt" height="240.000000pt" viewBox="0 0 240.000000 240.000000"
 preserveAspectRatio="xMidYMid meet">
<metadata>
Created by potrace 1.14, written by Peter Selinger 2001-2017
</metadata>
<g transform="translate(0.000000,240.000000) scale(0.100000,-0.100000)"
fill="#000000" stroke="none">
<path d="M1065 2394 c-168 -26 -282 -62 -418 -132 -316 -162 -546 -465 -623
-822 -26 -118 -26 -362 0 -480 102 -473 463 -834 936 -936 118 -26 362 -26
480 0 472 102 834 464 936 936 26 118 26 362 0 480 -101 466 -454 826 -916
931 -83 19 -327 33 -395 23z m320 -331 c-7 -27 -52 -194 -100 -373 -47 -179
-89 -333 -91 -342 -5 -17 18 -18 339 -20 l344 -3 -375 -518 c-206 -285 -376
-517 -377 -515 -2 2 28 163 66 358 38 195 69 356 69 358 0 1 -164 2 -365 2
-201 0 -365 2 -365 5 0 7 860 1095 865 1095 2 0 -2 -21 -10 -47z"/>
</g>
</svg>
